<?xml version="1.0" standalone="no"?><!DOCTYPE svg PUBLIC "-//W3C//DTD SVG 1.1//EN" "http://www.w3.org/Graphics/SVG/1.1/DTD/svg11.dtd"><svg t="1736087661347" class="icon" viewBox="0 0 1024 1024" version="1.1" xmlns="http://www.w3.org/2000/svg" p-id="3590" xmlns:xlink="http://www.w3.org/1999/xlink" width="128" height="128"><path d="M889.173333 633.173333C855.620267 666.1632 815.240533 682.666667 768 682.666667H260.266667c45.5168-1.1264 84.48-17.629867 116.906666-49.493334 31.863467-31.829333 48.349867-70.229333 49.493334-115.2V512c0-47.223467-16.503467-87.330133-49.493334-120.32-32.426667-32.426667-71.389867-49.2032-116.906666-50.346667H768c47.240533 0 87.620267 16.776533 121.173333 50.346667C922.1632 424.669867 938.666667 464.776533 938.666667 512c0 47.240533-16.503467 87.620267-49.493334 121.173333zM836.266667 506.026667h-51.2V597.333333v-91.306666h51.2zM853.333333 426.666667h-68.266666v79.36V426.666667h68.266666z m-290.133333 128v-85.333334c0-11.946667-4.266667-22.186667-12.8-30.72-7.970133-7.970133-17.92-11.946667-29.866667-11.946666s-22.186667 3.976533-30.72 11.946666c-7.970133 8.533333-11.946667 18.773333-11.946666 30.72v85.333334c0 11.946667 3.976533 21.896533 11.946666 29.866666 8.533333 8.533333 18.773333 12.8 30.72 12.8s21.896533-4.266667 29.866667-12.8c8.533333-7.970133 12.8-17.92 12.8-29.866666 0 11.946667-4.266667 21.896533-12.8 29.866666-7.970133 8.533333-17.92 12.8-29.866667 12.8s-22.186667-4.266667-30.72-12.8c-7.970133-7.970133-11.946667-17.92-11.946666-29.866666v-85.333334c0-11.946667 3.976533-22.186667 11.946666-30.72 8.533333-7.970133 18.773333-11.946667 30.72-11.946666s21.896533 3.976533 29.866667 11.946666c8.533333 8.533333 12.8 18.773333 12.8 30.72v85.333334z m136.533333-42.666667h-51.2v85.333333-85.333333h51.2z m17.066667-85.333333h-68.266667v85.333333-85.333333h68.266667z" p-id="3591" data-spm-anchor-id="a313x.collections_detail.0.i9.623e3a81MpvYNZ" class="selected" fill="#8a8a8a"></path><path d="M785.066667 614.4a17.066667 17.066667 0 0 1-17.066667-17.066667V426.666667a17.066667 17.066667 0 0 1 17.066667-17.066667h68.266666a17.066667 17.066667 0 1 1 0 34.133333h-51.2v45.226667h34.133334a17.066667 17.066667 0 1 1 0 34.133333h-34.133334V597.333333a17.066667 17.066667 0 0 1-17.066666 17.066667z m-136.533334 0a17.066667 17.066667 0 0 1-17.066666-17.066667V426.666667a17.066667 17.066667 0 0 1 17.066666-17.066667h68.266667a17.066667 17.066667 0 1 1 0 34.133333h-51.2v51.2h34.133333a17.066667 17.066667 0 1 1 0 34.133334h-34.133333v68.266666a17.066667 17.066667 0 0 1-17.066667 17.066667z m-128 0a58.5728 58.5728 0 0 1-42.786133-17.800533C466.500267 585.3696 460.8 571.255467 460.8 554.666667v-85.333334c0-16.366933 5.563733-30.6176 16.554667-42.359466 12.561067-11.810133 26.811733-17.373867 43.178666-17.373867 16.5888 0 30.702933 5.700267 41.9328 16.964267A58.504533 58.504533 0 0 1 580.266667 469.333333v85.333334c0 16.571733-6.2976 31.214933-18.210134 42.3424-10.308267 11.093333-24.951467 17.390933-41.5232 17.390933z m0-170.666667c-7.645867 0-13.704533 2.338133-19.063466 7.355734-4.1984 4.539733-6.536533 10.5984-6.536534 18.244266v85.333334c0 7.406933 2.2016 13.073067 6.946134 17.800533 5.3248 5.307733 11.246933 7.799467 18.653866 7.799467 7.2704 0 12.629333-2.286933 17.390934-7.389867 5.922133-5.5808 8.209067-10.939733 8.209066-18.210133v-85.333334c0-7.406933-2.491733-13.329067-7.799466-18.653866-4.727467-4.744533-10.3936-6.946133-17.800534-6.946134z" fill="#FFFFFF" p-id="3592"></path><path d="M768 699.733333H256c-51.694933 0-96.238933-18.3296-132.386133-54.493866C86.8864 608.529067 68.266667 563.712 68.266667 512c0-51.7632 18.653867-96.341333 55.466666-132.488533C159.658667 342.920533 204.2368 324.266667 256 324.266667h512c51.712 0 96.529067 18.619733 133.239467 55.3472C937.403733 415.761067 955.733333 460.305067 955.733333 512c0 51.6608-18.295467 96.443733-54.408533 133.137067l-0.2048 0.2048C864.426667 681.437867 819.643733 699.733333 768 699.733333z m-402.926933-34.133333H768c42.922667 0 78.609067-14.557867 109.1072-44.4928C907.042133 590.609067 921.6 554.939733 921.6 512c0-42.9056-14.557867-78.318933-44.4928-108.2368C846.592 373.230933 810.922667 358.4 768 358.4H364.373333c8.669867 6.229333 16.964267 13.294933 24.8832 21.213867C425.403733 415.761067 443.733333 460.305067 443.733333 512v5.973333c-1.245867 49.698133-19.575467 92.381867-54.493866 127.266134A204.8 204.8 0 0 1 365.073067 665.6zM256 358.4c-42.8544 0-78.2336 14.7968-108.1344 45.243733C117.1968 433.7664 102.4 469.1456 102.4 512c0 42.922667 14.830933 78.592 45.346133 109.1072C177.681067 651.042133 213.0944 665.6 256 665.6h4.0448c41.3184-1.058133 75.7248-15.6672 105.1648-44.5952 28.8256-28.808533 43.383467-62.6688 44.407467-103.458133L409.6 512c0-42.9056-14.557867-78.318933-44.4928-108.253867-29.422933-29.44-63.7952-44.270933-105.0624-45.346133H256z" p-id="3593" data-spm-anchor-id="a313x.collections_detail.0.i10.623e3a81MpvYNZ" class="selected" fill="#8a8a8a"></path></svg>